HIERARCHY
ROOT Hips
{
 OFFSET 0.000000 0.000000 0.000000
 CHANNELS 6 Xposition Yposition Zposition Yrotation Xrotation Zrotation
 JOINT Chest
 {
  OFFSET 0.000000 14.374500 -0.011500
  CHANNELS 3 Yrotation Xrotation Zrotation
  JOINT Chest2
  {
   OFFSET 0.000000 9.203400 0.023400
   CHANNELS 3 Yrotation Xrotation Zrotation
   JOINT Chest3
   {
    OFFSET 0.000000 9.162700 0.000000
    CHANNELS 3 Yrotation Xrotation Zrotation
    JOINT Chest4
    {
     OFFSET 0.000000 9.153300 0.000000
     CHANNELS 3 Yrotation Xrotation Zrotation
     JOINT Neck
     {
      OFFSET 0.000000 13.353600 0.000000
      CHANNELS 3 Yrotation Xrotation Zrotation
      JOINT Head
      {
       OFFSET 0.000000 8.573800 0.049400
       CHANNELS 3 Yrotation Xrotation Zrotation
       End Site
       {
        OFFSET 0.000000 16.219200 0.026100
       }
      }
     }
     JOINT RightCollar
     {
      OFFSET -2.497100 8.876100 0.000000
      CHANNELS 3 Yrotation Xrotation Zrotation
      JOINT RightShoulder
      {
       OFFSET -12.289200 0.000000 0.000000
       CHANNELS 3 Yrotation Xrotation Zrotation
       JOINT RightElbow
       {
        OFFSET 0.000000 -28.194900 0.000000
        CHANNELS 3 Yrotation Xrotation Zrotation
        JOINT RightWrist
        {
         OFFSET 0.000000 -23.009700 0.007900
         CHANNELS 3 Yrotation Xrotation Zrotation
         End Site
         {
          OFFSET 0.000000 -17.151500 0.000000
         }
        }
       }
      }
     }
     JOINT LeftCollar
     {
      OFFSET 2.497100 8.876100 0.000000
      CHANNELS 3 Yrotation Xrotation Zrotation
      JOINT LeftShoulder
      {
       OFFSET 12.289200 0.000000 0.000000
       CHANNELS 3 Yrotation Xrotation Zrotation
       JOINT LeftElbow
       {
        OFFSET 0.000000 -28.194900 0.000000
        CHANNELS 3 Yrotation Xrotation Zrotation
        JOINT LeftWrist
        {
         OFFSET 0.000000 -23.009700 0.007900
         CHANNELS 3 Yrotation Xrotation Zrotation
         End Site
         {
          OFFSET 0.000000 -17.151500 0.000000
         }
        }
       }
      }
     }
    }
   }
  }
 }
 JOINT RightHip
 {
  OFFSET -11.777600 0.056700 0.005700
  CHANNELS 3 Yrotation Xrotation Zrotation
  JOINT RightKnee
  {
   OFFSET 0.000000 -39.966000 -0.004200
   CHANNELS 3 Yrotation Xrotation Zrotation
   JOINT RightAnkle
   {
    OFFSET 0.000000 -41.981900 0.027400
    CHANNELS 3 Yrotation Xrotation Zrotation
    JOINT RightToe
    {
     OFFSET 0.000000 -9.910600 16.950100
     CHANNELS 3 Yrotation Xrotation Zrotation
     End Site
     {
      OFFSET 0.000000 -1.461000 6.191600
     }
    }
   }
  }
 }
 JOINT LeftHip
 {
  OFFSET 11.777600 0.056700 0.005700
  CHANNELS 3 Yrotation Xrotation Zrotation
  JOINT LeftKnee
  {
   OFFSET 0.000000 -39.966000 -0.004200
   CHANNELS 3 Yrotation Xrotation Zrotation
   JOINT LeftAnkle
   {
    OFFSET 0.000000 -41.981900 0.027400
    CHANNELS 3 Yrotation Xrotation Zrotation
    JOINT LeftToe
    {
     OFFSET 0.000000 -9.910600 16.950100
     CHANNELS 3 Yrotation Xrotation Zrotation
     End Site
     {
      OFFSET 0.000000 -1.461000 6.191600
     }
    }
   }
  }
 }
}
MOTION
Frames: 12
Frame Time: 0.008333
0.000000 91.618700 0.000000 0.000000 -5.767877 0.000000 0.000000 11.653817 0.000000 0.000000 -5.885947 0.000000 0.000000 -0.000000 0.000000 0.000000 -0.000000 0.000000 0.000000 12.528835 0.000000 0.000000 0.711642 0.000000 0.000000 -0.000000 0.000000 0.000000 0.000000 -90.000000 0.000000 -2.309062 0.000000 0.000000 2.309062 0.000000 0.000000 -0.000000 0.000000 0.000000 -0.000000 90.000000 0.000000 -2.309062 0.000000 0.000000 2.309062 0.000000 0.000000 8.520406 0.000000 0.000000 1.905762 0.000000 -0.000000 -4.658285 0.000000 0.000000 -0.000000 0.000000 0.000000 8.520406 0.000000 0.000000 1.905762 0.000000 -0.000000 -4.658285 0.000000 0.000000 -0.000000 0.000000
-2.966428 152.671137 76.605881 171.690591 -51.414284 -3.020877 5.990855 28.725529 4.061601 0.896928 5.407784 0.560999 1.432025 8.465059 0.919035 4.402866 22.987987 3.157897 0.431963 20.947885 0.086418 0.444846 -3.466042 0.005600 1.130323 -5.030274 0.344069 10.597529 -9.996553 -6.450302 49.224698 -72.183575 -33.760450 24.099749 -1.739058 -59.450739 -9.723563 -6.936483 0.364305 -5.819147 -13.073077 4.772516 -9.455017 -68.225495 -15.003530 -25.423127 -21.409246 57.186931 6.595122 -27.049299 6.068822 -68.875810 83.839035 -72.757238 1.643698 -23.530048 9.880776 0.075736 -0.254566 0.042407 -0.328890 -25.496803 -0.148420 153.452350 69.407060 164.049017 -6.627139 8.647653 -6.662938 0.150171 -10.284340 -0.593675
-3.317033 145.632323 77.544153 171.863858 -51.357249 -3.250866 5.927065 28.662369 4.164230 0.897059 5.407116 0.561580 1.429860 8.464466 0.930745 4.398869 22.992975 3.154967 0.430427 20.900651 0.073369 0.443908 -3.529377 -0.019788 1.146931 -5.014425 0.338845 10.577375 -9.951649 -6.448121 49.361889 -72.226617 -33.913203 24.053356 -1.739001 -59.440040 -9.737297 -6.950288 0.352911 -5.823541 -13.056082 4.782174 -9.313459 -68.193864 -15.152631 -25.446831 -21.444772 57.220290 6.442041 -27.129682 6.159982 -69.047013 83.848711 -72.918417 1.673099 -23.634366 9.887374 0.038164 -0.170542 0.022304 -0.484516 -25.522516 -0.044839 153.439927 69.449680 164.035769 -6.563233 8.676921 -6.626828 0.052031 0.029638 0.030419
-3.607363 139.837755 78.314399 171.999822 -51.319260 -3.427892 5.875465 28.621403 4.242093 0.895622 5.407013 0.564872 1.429883 8.465797 0.930246 4.397409 22.993416 3.155472 0.428780 20.894963 0.066766 0.445707 -3.546251 -0.026275 1.171850 -5.006890 0.341315 10.565865 -9.945438 -6.462615 49.273653 -72.258718 -33.844985 24.025924 -1.731681 -59.418201 -9.744262 -6.964702 0.356427 -5.834756 -13.046371 4.786226 -9.156354 -68.142717 -15.313406 -25.490529 -21.473836 57.254837 6.324545 -27.185482 6.227720 -69.208732 83.852926 -73.073155 1.695164 -23.721023 9.893893 0.012219 -0.094859 0.007142 -0.604531 -25.532151 0.032178 153.416385 69.483824 164.013671 -6.525458 8.702211 -6.607592 0.021024 0.016531 0.012293
-3.821609 135.655273 78.867014 172.062450 -51.303754 -3.508782 5.850915 28.605056 4.279697 0.894936 5.407120 0.565971 1.430191 8.465962 0.927112 4.396841 22.993251 3.159460 0.430925 20.876141 0.062080 0.445210 -3.547365 -0.032004 1.175497 -5.007317 0.336501 10.575523 -9.941663 -6.467394 49.115982 -72.278013 -33.703149 24.001439 -1.727224 -59.390999 -9.754367 -6.980010 0.364588 -5.846830 -13.042925 4.790912 -9.000167 -68.085824 -15.465923 -25.522683 -21.500992 57.278513 6.271587 -27.210929 6.256454 -69.301367 83.861538 -73.163268 1.699856 -23.768527 9.894425 0.004306 -0.059835 0.002518 -0.658872 -25.526909 0.065756 153.393084 69.506834 163.990923 -6.514128 8.717423 -6.599945 0.011298 0.005635 0.006606
-3.954977 133.013965 79.215353 172.118689 -51.289953 -3.581528 5.827312 28.593391 4.314198 0.894555 5.406375 0.566736 1.429506 8.465066 0.928349 4.395552 22.992190 3.162902 0.439625 20.844577 0.052051 0.446768 -3.577099 -0.046317 1.186195 -5.011321 0.328019 10.571403 -9.935760 -6.471588 48.921247 -72.288519 -33.511965 23.983858 -1.725419 -59.357719 -9.764011 -6.997013 0.366779 -5.846381 -13.034698 4.787218 -8.872203 -68.025006 -15.601387 -25.453085 -21.499197 57.228288 6.223198 -27.229934 6.285671 -69.363170 83.863916 -73.223748 1.698500 -23.813413 9.896188 -0.000632 -0.025653 -0.000369 -0.708566 -25.526619 0.098961 153.379501 69.522782 163.976831 -6.506340 8.729735 -6.592566 0.002858 -0.002324 0.001671
-4.030924 131.560767 79.405607 172.135961 -51.275143 -3.601669 5.825325 28.592213 4.331004 0.892387 5.398846 0.564284 1.429083 8.463087 0.928880 4.402367 22.989942 3.170375 0.436359 20.824759 0.043079 0.447147 -3.596201 -0.051505 1.183921 -5.023125 0.319427 10.593207 -9.935818 -6.476716 48.412823 -72.293376 -33.025432 24.054980 -1.755901 -59.362513 -9.782748 -7.019602 0.371989 -5.867242 -13.042500 4.795242 -8.697240 -67.939678 -15.770082 -25.409702 -21.498354 57.183365 6.210743 -27.245033 6.293217 -69.418258 83.858800 -73.276982 1.688443 -23.828253 9.897219 -0.002011 -0.017146 -0.001176 -0.724173 -25.533922 0.106202 153.376918 69.526201 163.973890 -6.504703 8.727478 -6.592154 0.002870 -0.004907 0.001678
-4.066305 130.867026 79.496407 172.140040 -51.251892 -3.613556 5.825558 28.570470 4.339479 0.894824 5.403241 0.567448 1.429877 8.460379 0.929638 4.398604 22.986422 3.167474 0.440640 20.815337 0.042202 0.444118 -3.596645 -0.051442 1.194551 -5.048128 0.314377 10.651949 -9.953645 -6.479769 48.031088 -72.256545 -32.698644 24.043810 -1.747545 -59.328587 -9.787978 -7.035002 0.380667 -5.888802 -13.058070 4.802408 -8.528007 -67.848071 -15.934886 -25.386404 -21.501462 57.140757 6.208890 -27.268342 6.302127 -69.476049 83.868558 -73.339082 1.674570 -23.844855 9.903608 -0.004289 -0.011613 -0.002507 -0.733392 -25.549974 0.111177 153.419588 69.524539 164.023814 -6.495346 8.711831 -6.597728 0.007627 -0.001450 0.004460
-4.080064 130.583059 79.532267 172.139013 -51.232867 -3.621211 5.830178 28.562476 4.345623 0.895714 5.401384 0.568079 1.431489 8.457481 0.930554 4.404212 22.982427 3.171453 0.440791 20.802119 0.041620 0.460205 -3.632654 -0.056129 1.192535 -5.064398 0.309101 10.665356 -9.955276 -6.476617 47.788821 -72.238751 -32.466202 24.013492 -1.727187 -59.274176 -9.795756 -7.043767 0.383540 -5.900543 -13.071332 4.807297 -8.397342 -67.770715 -16.068944 -25.367604 -21.499303 57.100070 6.216841 -27.286922 6.307336 -69.501296 83.872859 -73.363351 1.679368 -23.852283 9.907441 -0.002879 -0.009649 -0.001683 -0.741794 -25.562941 0.115496 153.433727 69.521541 164.037110 -6.487930 8.705997 -6.596491 0.006622 -0.000606 0.003872
-4.085090 130.485691 79.541829 172.140000 -51.223748 -3.625371 5.833672 28.567460 4.343833 0.896735 5.394305 0.568747 1.433700 8.451585 0.937046 4.407004 22.977356 3.174530 0.449542 20.780024 0.042565 0.486631 -3.706128 -0.055252 1.186793 -5.077001 0.303348 10.682713 -9.955447 -6.472919 47.557331 -72.218513 -32.244145 23.998054 -1.717556 -59.224576 -9.804964 -7.061137 0.393989 -5.903896 -13.077447 4.799131 -8.290024 -67.694750 -16.179476 -25.353345 -21.496194 57.068291 6.231416 -27.295705 6.306673 -69.569720 83.876780 -73.425234 1.675961 -23.852397 9.913197 -0.003000 -0.009423 -0.001754 -0.745115 -25.567333 0.114975 153.445900 69.515997 164.048027 -6.481526 8.702241 -6.594919 0.005496 -0.000454 0.003214
-4.087019 130.458282 79.541912 172.133162 -51.216128 -3.620596 5.836675 28.562472 4.339833 0.897049 5.390959 0.568814 1.434838 8.449153 0.934271 4.412980 22.970149 3.177428 0.461117 20.756466 0.049684 0.504471 -3.761979 -0.047517 1.182978 -5.083266 0.301941 10.706109 -9.970634 -6.469910 47.339267 -72.191872 -32.039490 23.998638 -1.718772 -59.203135 -9.814176 -7.065150 0.401205 -5.902725 -13.093855 4.799430 -8.232217 -67.642282 -16.239793 -25.319563 -21.486165 57.031797 6.254885 -27.303282 6.301665 -69.663547 83.881475 -73.508913 1.666419 -23.859266 9.920701 -0.003406 -0.012245 -0.001991 -0.735085 -25.564888 0.103797 153.421539 69.511854 164.028333 -6.474596 8.698498 -6.594418 0.002664 0.001293 0.001558
-4.087369 130.451265 79.540491 172.130161 -51.201199 -3.620506 5.837714 28.547890 4.339665 0.896244 5.385487 0.566704 1.435126 8.444858 0.933876 4.416203 22.962254 3.178773 0.483196 20.689528 0.060437 0.509454 -3.767120 -0.040796 1.186158 -5.078463 0.297677 10.721665 -9.998558 -6.469222 47.183161 -72.165532 -31.893994 23.982110 -1.708826 -59.168653 -9.817310 -7.064607 0.413439 -5.893353 -13.098882 4.787590 -8.191973 -67.603582 -16.288783 -25.285404 -21.485475 56.998408 6.265528 -27.318920 6.299551 -69.748462 83.890326 -73.591480 1.664674 -23.860787 9.924479 -0.003264 -0.012519 -0.001908 -0.733842 -25.577047 0.102557 153.413725 69.507569 164.021334 -6.473087 8.700647 -6.595454 0.002753 -0.002186 0.001610
